<svg width="49" height="48" viewBox="0 0 49 48" fill="none" xmlns="http://www.w3.org/2000/svg">
<rect x="0.5" width="48" height="48" rx="24" fill="black"/>
<path d="M29.6819 23.7796C29.6909 23.0744 29.8783 22.3829 30.2267 21.7697C30.5751 21.1565 31.0731 20.6414 31.6742 20.2726C31.2923 19.728 30.7888 19.2798 30.2036 18.9635C29.6184 18.6472 28.9676 18.4714 28.3027 18.4502C26.8842 18.3024 25.51 19.2998 24.7859 19.2998C24.0495 19.2998 22.9388 18.465 21.7395 18.4896C20.9639 18.5144 20.2079 18.7397 19.5454 19.1437C18.8828 19.5477 18.3363 20.1166 17.9592 20.7947C16.3264 23.6244 17.5454 27.7791 19.1093 30.067C19.8924 31.1851 20.8086 32.4362 22.0055 32.3918C23.1777 32.3426 23.6136 31.6456 25.0273 31.6456C26.431 31.6456 26.8398 32.3918 28.0614 32.3623C29.3174 32.3426 30.1104 31.2393 30.8689 30.1089C31.4306 29.3116 31.8628 28.4305 32.1495 27.4984C31.4188 27.1892 30.7953 26.6716 30.3568 26.0103C29.9184 25.3489 29.6845 24.5731 29.6843 23.7796H29.6819ZM27.3767 16.9455C28.0615 16.1234 28.399 15.0668 28.3175 14C27.2704 14.1099 26.3032 14.6102 25.6085 15.4013C25.2689 15.788 25.0088 16.2378 24.8431 16.725C24.6775 17.2122 24.6095 17.7273 24.6431 18.2409C25.1668 18.2461 25.685 18.1325 26.1585 17.9086C26.632 17.6846 27.0485 17.3537 27.3767 16.9455Z" fill="white"/>
</svg>
