<svg width="49" height="48" viewBox="0 0 49 48" fill="none" xmlns="http://www.w3.org/2000/svg">
<g clip-path="url(#clip0_1069_194748)">
<path d="M24.5 48C37.7548 48 48.5 37.2548 48.5 24C48.5 10.7452 37.7548 0 24.5 0C11.2452 0 0.5 10.7452 0.5 24C0.5 37.2548 11.2452 48 24.5 48Z" fill="#FEE500"/>
<path fill-rule="evenodd" clip-rule="evenodd" d="M25.0922 16C20.3038 16 16.4248 18.9651 16.4248 22.6252C16.4248 24.8998 17.9254 26.9059 20.209 28.0996L19.2477 31.5747C19.23 31.6433 19.2339 31.7157 19.259 31.7819C19.284 31.8482 19.329 31.9051 19.3877 31.9448C19.4464 31.9858 19.5161 32.0082 19.5878 32.009C19.6594 32.0098 19.7297 31.989 19.7893 31.9493L24.0045 29.1963C24.3611 29.2301 24.7221 29.2504 25.0877 29.2504C29.8761 29.2504 33.7573 26.2831 33.7573 22.6252C33.7573 18.9674 29.8783 16 25.0922 16Z" fill="black" fill-opacity="0.9"/>
</g>
<defs>
<clipPath id="clip0_1069_194748">
<rect width="48" height="48" fill="white" transform="translate(0.5)"/>
</clipPath>
</defs>
</svg>
