<svg width="49" height="48" viewBox="0 0 49 48" fill="none" xmlns="http://www.w3.org/2000/svg">
<g clip-path="url(#clip0_1069_194736)">
<path d="M24.5 48C37.7548 48 48.5 37.2548 48.5 24C48.5 10.7452 37.7548 0 24.5 0C11.2452 0 0.5 10.7452 0.5 24C0.5 37.2548 11.2452 48 24.5 48Z" fill="#9146FF"/>
<path d="M24.5 48C37.7548 48 48.5 37.2548 48.5 24C48.5 10.7452 37.7548 0 24.5 0C11.2452 0 0.5 10.7452 0.5 24C0.5 37.2548 11.2452 48 24.5 48Z" fill="#9146FF"/>
<g clip-path="url(#clip1_1069_194736)">
<path d="M19.75 15L16 18.5714V31.4286H20.5V35L24.25 31.4286H27.25L34 25V15H19.75ZM32.5 24.2857L29.5 27.1429H26.5L23.875 29.6429V27.1429H20.5V16.4286H32.5V24.2857Z" fill="white"/>
<path d="M30.25 18.9287H28.75V23.2144H30.25V18.9287Z" fill="white"/>
<path d="M26.125 18.9287H24.625V23.2144H26.125V18.9287Z" fill="white"/>
</g>
</g>
<defs>
<clipPath id="clip0_1069_194736">
<rect width="48" height="48" fill="white" transform="translate(0.5)"/>
</clipPath>
<clipPath id="clip1_1069_194736">
<rect width="18" height="20" fill="white" transform="translate(16 15)"/>
</clipPath>
</defs>
</svg>
